<svg width="403" height="323" viewBox="0 0 403 323" fill="none" xmlns="http://www.w3.org/2000/svg">
<g clip-path="url(#clip0_51_1141)">
<path d="M284.1 124.51H274.39C274.06 124.51 273.73 124.53 273.41 124.56V102.47C273.41 62.77 240.93 29.86 201.23 30C161.64 30.14 129.59 62.28 129.59 101.91L129.65 119C129.61 119.38 129.59 119.76 129.59 120.15V124.56C129.27 124.52 128.94 124.51 128.61 124.51H118.9C108.33 124.51 99.7695 133.08 99.7695 143.64V147.21C99.7695 163.14 112.68 176.05 128.61 176.05C128.84 176.05 129.07 176.05 129.29 176.02C131.5 175.85 133.54 177.15 134.33 179.22C136.64 185.27 139.74 190.95 143.5 196.12V267.25H259.5V196.58C263.37 191.31 266.54 185.49 268.87 179.26C269.65 177.18 271.68 175.91 273.9 176.03C274.06 176.03 274.22 176.04 274.39 176.04C282.35 176.04 289.56 172.81 294.78 167.59C300 162.37 303.23 155.16 303.23 147.2V143.63C303.23 133.07 294.67 124.5 284.1 124.5V124.51Z" fill="#ED83CA"/>
<path d="M167.48 142.21C177.09 142.21 184.88 134.42 184.88 124.81C184.88 115.2 177.09 107.41 167.48 107.41C157.87 107.41 150.08 115.2 150.08 124.81C150.08 134.42 157.87 142.21 167.48 142.21Z" fill="white" stroke="black" stroke-width="5" stroke-miterlimit="10"/>
<path d="M167.48 132.19C171.555 132.19 174.86 128.886 174.86 124.81C174.86 120.734 171.555 117.43 167.48 117.43C163.404 117.43 160.1 120.734 160.1 124.81C160.1 128.886 163.404 132.19 167.48 132.19Z" fill="#020202"/>
<path d="M235.32 142.21C244.93 142.21 252.72 134.42 252.72 124.81C252.72 115.2 244.93 107.41 235.32 107.41C225.71 107.41 217.92 115.2 217.92 124.81C217.92 134.42 225.71 142.21 235.32 142.21Z" fill="white" stroke="black" stroke-width="5" stroke-miterlimit="10"/>
<path d="M235.32 132.19C239.396 132.19 242.7 128.886 242.7 124.81C242.7 120.734 239.396 117.43 235.32 117.43C231.245 117.43 227.94 120.734 227.94 124.81C227.94 128.886 231.245 132.19 235.32 132.19Z" fill="#020202"/>
<path d="M213.95 166.29H188.85C183.592 166.29 179.33 170.552 179.33 175.81V175.82C179.33 181.078 183.592 185.34 188.85 185.34H213.95C219.208 185.34 223.47 181.078 223.47 175.82V175.81C223.47 170.552 219.208 166.29 213.95 166.29Z" stroke="black" stroke-width="5" stroke-miterlimit="10"/>
<path d="M179.33 175.81H223.47" stroke="#020202" stroke-width="5" stroke-linecap="round" stroke-linejoin="round"/>
<path d="M185.58 97.39H156.08C152.352 97.39 149.33 100.412 149.33 104.14C149.33 107.868 152.352 110.89 156.08 110.89H185.58C189.308 110.89 192.33 107.868 192.33 104.14C192.33 100.412 189.308 97.39 185.58 97.39Z" fill="#020202"/>
<path d="M246.92 97.39H217.42C213.692 97.39 210.67 100.412 210.67 104.14C210.67 107.868 213.692 110.89 217.42 110.89H246.92C250.648 110.89 253.67 107.868 253.67 104.14C253.67 100.412 250.648 97.39 246.92 97.39Z" fill="#020202"/>
<path d="M201.5 159.54C204.339 159.54 206.64 157.239 206.64 154.4C206.64 151.561 204.339 149.26 201.5 149.26C198.662 149.26 196.36 151.561 196.36 154.4C196.36 157.239 198.662 159.54 201.5 159.54Z" fill="#ED83CA" stroke="black" stroke-width="5" stroke-miterlimit="10"/>
<path d="M212.16 139.38C211.94 139.38 211.73 139.39 211.51 139.41L209.03 128.53C208.23 125.03 205.12 122.55 201.53 122.55H200.97C197.38 122.55 194.27 125.04 193.48 128.54L191.03 139.38C190.96 139.38 190.89 139.37 190.82 139.37C187.15 139.37 184.17 142.35 184.17 146.02C184.17 149.69 187.15 152.67 190.82 152.67C192.53 152.67 194.09 152.02 195.27 150.95C196.9 152.03 198.85 152.67 200.99 152.67H201.55C203.79 152.67 205.84 151.96 207.51 150.78C208.71 151.95 210.34 152.67 212.15 152.67C215.82 152.67 218.8 149.69 218.8 146.02C218.8 142.35 215.82 139.37 212.15 139.37L212.16 139.38Z" fill="#ED83CA" stroke="black" stroke-width="5" stroke-miterlimit="10"/>
<path d="M126.62 136.95H121.76C116.48 136.95 112.2 141.23 112.2 146.51V148.3C112.2 156.26 118.66 162.72 126.62 162.72" fill="#ED83CA"/>
<path d="M126.62 136.95H121.76C116.48 136.95 112.2 141.23 112.2 146.51V148.3C112.2 156.26 118.66 162.72 126.62 162.72" stroke="black" stroke-width="5" stroke-miterlimit="10"/>
<path d="M126.62 148.63L113.13 141.24" stroke="black" stroke-width="5" stroke-miterlimit="10"/>
<path d="M276.34 136.95H281.2C286.48 136.95 290.76 141.23 290.76 146.51V148.3C290.76 156.26 284.3 162.72 276.34 162.72" fill="#ED83CA"/>
<path d="M276.34 136.95H281.2C286.48 136.95 290.76 141.23 290.76 146.51V148.3C290.76 156.26 284.3 162.72 276.34 162.72" stroke="black" stroke-width="5" stroke-miterlimit="10"/>
<path d="M276.34 148.63L289.83 141.24" stroke="black" stroke-width="5" stroke-miterlimit="10"/>
<path d="M185.98 123.42H218.65" stroke="black" stroke-width="5" stroke-miterlimit="10"/>
<path d="M355 323H48C55.78 307.01 69.86 294.62 87.31 289.17L124.95 277.39C129.17 276.07 132.04 272.16 132.04 267.74V256.36C132.04 250.6 136.71 245.93 142.46 245.93H260.53C266.29 245.93 270.96 250.6 270.96 256.36V267.74C270.96 272.16 273.83 276.07 278.05 277.39L315.69 289.17C333.13 294.62 347.22 307.01 355 323Z" fill="black"/>
<path d="M282.27 169.6H282.26C280.398 169.6 278.89 171.109 278.89 172.97V196.25C278.89 198.111 280.398 199.62 282.26 199.62H282.27C284.131 199.62 285.64 198.111 285.64 196.25V172.97C285.64 171.109 284.131 169.6 282.27 169.6Z" stroke="black" stroke-width="5" stroke-miterlimit="10"/>
<path d="M120.74 169.6H120.73C118.869 169.6 117.36 171.109 117.36 172.97V196.25C117.36 198.111 118.869 199.62 120.73 199.62H120.74C122.602 199.62 124.11 198.111 124.11 196.25V172.97C124.11 171.109 122.602 169.6 120.74 169.6Z" stroke="black" stroke-width="5" stroke-miterlimit="10"/>
<path d="M201.37 224.56C178.25 223.85 159.46 210.59 149.96 202.37C149.84 203.6 149.71 204.84 149.58 206.07C167.62 232.86 185.46 241.42 201.38 240.68C216.86 241.4 234.16 233.31 251.7 208.21V203.29C241.91 211.55 223.65 223.88 201.37 224.56Z" fill="#020202"/>
</g>
<defs>
<clipPath id="clip0_51_1141">
<rect width="307" height="293" fill="white" transform="translate(48 30)"/>
</clipPath>
</defs>
</svg>
