<svg width="403" height="323" viewBox="0 0 403 323" fill="none" xmlns="http://www.w3.org/2000/svg">
<g clip-path="url(#clip0_51_1114)">
<g clip-path="url(#clip1_51_1114)">
<path d="M278.55 76.5V159.11H123.51V76.5C123.51 73.73 123.76 71.01 124.23 68.38C125.53 61.18 124.71 53.8 122.53 46.82C121.64 43.97 121.07 40.98 120.86 37.91C119.32 15.03 137.4 -4 159.95 -4C164.59 -4 169.05 -3.2 173.17 -1.72C177.3 -3.21 181.74 -4 186.39 -4C191.04 -4 195.49 -3.2 199.61 -1.72C203.74 -3.21 208.2 -4 212.84 -4C217.48 -4 221.94 -3.2 226.08 -1.7C230.22 -3.21 234.68 -4 239.32 -4C262.02 -4 280.21 15.26 278.43 38.33C278.27 40.38 277.95 42.39 277.49 44.34C275.8 51.39 275.58 58.73 277.28 65.78C278.11 69.22 278.55 72.81 278.55 76.5Z" fill="#D8D7FF"/>
<path d="M284.09 119.75H274.38C274.05 119.75 273.72 119.77 273.4 119.8V97.71C273.4 58.01 240.92 58.65 201.22 58.79C161.63 58.93 129.58 57.52 129.58 97.16L129.64 114.25C129.6 114.63 129.58 115.01 129.58 115.4V119.81C129.26 119.77 128.93 119.76 128.6 119.76H118.89C108.32 119.76 99.7598 128.33 99.7598 138.89V142.46C99.7598 158.39 112.67 171.3 128.6 171.3C128.83 171.3 129.06 171.3 129.28 171.27C131.49 171.1 133.53 172.4 134.32 174.47C136.63 180.52 139.73 186.2 143.49 191.37V262.5H259.49V191.83C263.36 186.56 266.53 180.74 268.86 174.51C269.64 172.43 271.67 171.16 273.89 171.28C274.05 171.28 274.21 171.29 274.38 171.29C282.34 171.29 289.55 168.06 294.77 162.84C299.99 157.62 303.22 150.41 303.22 142.45V138.88C303.22 128.32 294.66 119.75 284.09 119.75Z" fill="#ED83CA"/>
<path d="M228.95 34H173.97C149.449 34 129.57 53.8786 129.57 78.4V85.86C129.57 110.381 149.449 130.26 173.97 130.26H228.95C253.472 130.26 273.35 110.381 273.35 85.86V78.4C273.35 53.8786 253.472 34 228.95 34Z" fill="#ED83CA"/>
<path d="M167.46 137.45C177.069 137.45 184.86 129.66 184.86 120.05C184.86 110.44 177.069 102.65 167.46 102.65C157.85 102.65 150.06 110.44 150.06 120.05C150.06 129.66 157.85 137.45 167.46 137.45Z" fill="white" stroke="black" stroke-width="5" stroke-miterlimit="10"/>
<path d="M167.46 127.43C171.536 127.43 174.84 124.126 174.84 120.05C174.84 115.974 171.536 112.67 167.46 112.67C163.384 112.67 160.08 115.974 160.08 120.05C160.08 124.126 163.384 127.43 167.46 127.43Z" fill="#020202"/>
<path d="M235.31 137.45C244.92 137.45 252.71 129.66 252.71 120.05C252.71 110.44 244.92 102.65 235.31 102.65C225.7 102.65 217.91 110.44 217.91 120.05C217.91 129.66 225.7 137.45 235.31 137.45Z" fill="white" stroke="black" stroke-width="5" stroke-miterlimit="10"/>
<path d="M235.31 127.43C239.386 127.43 242.69 124.126 242.69 120.05C242.69 115.974 239.386 112.67 235.31 112.67C231.234 112.67 227.93 115.974 227.93 120.05C227.93 124.126 231.234 127.43 235.31 127.43Z" fill="#020202"/>
<path d="M188.1 84.4301H153.52C151.194 84.4301 149.31 86.3149 149.31 88.6401C149.31 90.9652 151.194 92.8501 153.52 92.8501H188.1C190.425 92.8501 192.31 90.9652 192.31 88.6401C192.31 86.3149 190.425 84.4301 188.1 84.4301Z" fill="#020202"/>
<path d="M249.44 84.4301H214.86C212.535 84.4301 210.65 86.3149 210.65 88.6401C210.65 90.9652 212.535 92.8501 214.86 92.8501H249.44C251.766 92.8501 253.65 90.9652 253.65 88.6401C253.65 86.3149 251.766 84.4301 249.44 84.4301Z" fill="#020202"/>
<path d="M126.6 132.2H121.74C116.46 132.2 112.18 136.48 112.18 141.76V143.55C112.18 151.51 118.64 157.97 126.6 157.97" fill="#ED83CA"/>
<path d="M126.6 132.2H121.74C116.46 132.2 112.18 136.48 112.18 141.76V143.55C112.18 151.51 118.64 157.97 126.6 157.97" stroke="black" stroke-width="5" stroke-miterlimit="10"/>
<path d="M126.6 143.87L113.11 136.49" stroke="black" stroke-width="5" stroke-miterlimit="10"/>
<path d="M276.32 132.2H281.18C286.46 132.2 290.74 136.48 290.74 141.76V143.55C290.74 151.51 284.28 157.97 276.32 157.97" fill="#ED83CA"/>
<path d="M276.32 132.2H281.18C286.46 132.2 290.74 136.48 290.74 141.76V143.55C290.74 151.51 284.28 157.97 276.32 157.97" stroke="black" stroke-width="5" stroke-miterlimit="10"/>
<path d="M276.32 143.87L289.81 136.49" stroke="black" stroke-width="5" stroke-miterlimit="10"/>
<path d="M354.98 323.34H48C55.77 307.35 69.85 294.96 87.3 289.51L124.94 277.73C129.16 276.41 132.03 272.5 132.03 268.08V256.7C132.03 250.94 136.7 246.27 142.45 246.27H260.52C266.28 246.27 270.95 250.94 270.95 256.7V268.08C270.95 272.5 273.82 276.41 278.04 277.73L315.68 289.51C333.12 294.96 347.21 307.35 354.98 323.34Z" fill="#336633"/>
<path d="M205.78 115.66C205.37 113.98 203.87 112.8 202.14 112.8H200.82C199.09 112.8 197.59 113.98 197.18 115.66L191.59 138.53C190.45 143.2 193.99 147.71 198.79 147.71H204.15C208.96 147.71 212.49 143.21 211.35 138.53L205.76 115.66H205.78Z" stroke="black" stroke-width="5" stroke-miterlimit="10"/>
<path d="M201.48 169.7C201.48 164.07 196.91 159.5 191.28 159.5C185.65 159.5 181.08 164.07 181.08 169.7C181.08 175.33 185.72 183.44 201.49 183.44C217.26 183.44 221.9 175.34 221.9 169.7C221.9 164.06 217.33 159.5 211.7 159.5C206.07 159.5 201.5 164.07 201.5 169.7" fill="#EA533D"/>
<path d="M201.48 169.7C201.48 164.07 196.91 159.5 191.28 159.5C185.65 159.5 181.08 164.07 181.08 169.7C181.08 175.33 185.72 183.44 201.49 183.44C217.26 183.44 221.9 175.34 221.9 169.7C221.9 164.06 217.33 159.5 211.7 159.5C206.07 159.5 201.5 164.07 201.5 169.7" stroke="#020202" stroke-width="5" stroke-linecap="round" stroke-linejoin="round"/>
<path d="M181.41 171.47H221.84" stroke="#020202" stroke-width="5" stroke-linecap="round" stroke-linejoin="round"/>
<path d="M282.25 164.94H282.24C280.379 164.94 278.87 166.449 278.87 168.31V191.59C278.87 193.451 280.379 194.96 282.24 194.96H282.25C284.111 194.96 285.62 193.451 285.62 191.59V168.31C285.62 166.449 284.111 164.94 282.25 164.94Z" stroke="black" stroke-width="5" stroke-miterlimit="10"/>
<path d="M120.73 164.94H120.72C118.858 164.94 117.35 166.449 117.35 168.31V191.59C117.35 193.451 118.858 194.96 120.72 194.96H120.73C122.591 194.96 124.1 193.451 124.1 191.59V168.31C124.1 166.449 122.591 164.94 120.73 164.94Z" stroke="black" stroke-width="5" stroke-miterlimit="10"/>
<path d="M201.36 218.55C179.3 217.88 161.17 205.77 151.31 197.51C151.11 198.91 150.91 200.32 150.7 201.72C168.35 227.2 185.78 235.39 201.37 234.66C217.01 235.39 234.51 227.13 252.23 201.42V196.82C242.58 205.07 224.06 217.85 201.37 218.55H201.36Z" fill="#020202"/>
<path d="M267.07 40.59C265.81 56.95 252.55 70.17 236.19 71.4C231.22 71.77 226.49 71.06 222.16 69.5C218.66 70.75 214.87 71.43 210.94 71.43C207.01 71.43 203.15 70.74 199.62 69.47C196.09 70.74 192.27 71.43 188.3 71.43C184.33 71.43 180.52 70.74 176.99 69.47C172.58 71.06 167.74 71.73 162.7 71.3C146.39 69.9 133.32 56.56 132.22 40.23C130.89 20.65 146.38 4.35999 165.67 4.35999C169.64 4.35999 173.46 5.04999 176.99 6.31999C180.52 5.04999 184.33 4.35999 188.3 4.35999C192.27 4.35999 196.09 5.04999 199.62 6.31999C203.15 5.04999 206.97 4.35999 210.94 4.35999C214.91 4.35999 218.73 5.04999 222.27 6.32999C225.81 5.04999 229.63 4.35999 233.6 4.35999C253.02 4.35999 268.59 20.85 267.07 40.59Z" fill="#D8D7FF"/>
<path d="M171.02 157.34C174.03 157.34 176.47 154.9 176.47 151.89C176.47 148.88 174.03 146.44 171.02 146.44C168.01 146.44 165.57 148.88 165.57 151.89C165.57 154.9 168.01 157.34 171.02 157.34Z" fill="black"/>
</g>
</g>
<defs>
<clipPath id="clip0_51_1114">
<rect width="403" height="323" fill="white"/>
</clipPath>
<clipPath id="clip1_51_1114">
<rect width="306.98" height="327.34" fill="white" transform="translate(48 -4)"/>
</clipPath>
</defs>
</svg>
