<svg width="403" height="323" viewBox="0 0 403 323" fill="none" xmlns="http://www.w3.org/2000/svg">
<g clip-path="url(#clip0_51_1062)">
<path d="M280.83 83.53V168.52H121.33V83.53C121.33 69.42 127.56 56.76 137.43 48.17C141.75 44.41 144.35 39.05 144.35 33.32V30.43C144.35 24.67 149.02 20 154.78 20H248.21C253.97 20 258.64 24.67 258.64 30.43V34.06C258.64 39.67 261.14 44.94 265.31 48.69C274.84 57.27 280.83 69.7 280.83 83.53Z" fill="#754C24"/>
<path d="M284.1 135.24H274.39C274.06 135.24 273.73 135.26 273.41 135.29V113.2C273.41 73.5 240.93 69.66 201.23 69.8C161.64 69.94 129.59 73.01 129.59 112.64L129.65 129.73C129.61 130.11 129.59 130.49 129.59 130.88V135.29C129.27 135.25 128.94 135.24 128.61 135.24H118.9C108.33 135.24 99.7695 143.81 99.7695 154.37V157.94C99.7695 173.87 112.68 186.78 128.61 186.78C128.84 186.78 129.07 186.78 129.29 186.75C131.5 186.58 133.54 187.88 134.33 189.95C136.64 196 139.74 201.68 143.5 206.85V277.98H259.5V207.31C263.37 202.04 266.54 196.22 268.87 189.99C269.65 187.91 271.68 186.64 273.9 186.76C274.06 186.76 274.22 186.77 274.39 186.77C282.35 186.77 289.56 183.54 294.78 178.32C300 173.1 303.23 165.89 303.23 157.93V154.36C303.23 143.8 294.67 135.23 284.1 135.23V135.24Z" fill="#ED83CA"/>
<path d="M233.11 56.14H169.83C147.601 56.14 129.58 74.1606 129.58 96.39V112.15C129.58 134.379 147.601 152.4 169.83 152.4H233.11C255.34 152.4 273.36 134.379 273.36 112.15V96.39C273.36 74.1606 255.34 56.14 233.11 56.14Z" fill="#ED83CA"/>
<path d="M167.47 152.94C177.08 152.94 184.87 145.15 184.87 135.54C184.87 125.93 177.08 118.14 167.47 118.14C157.861 118.14 150.07 125.93 150.07 135.54C150.07 145.15 157.861 152.94 167.47 152.94Z" fill="white"/>
<path d="M167.47 142.92C171.546 142.92 174.85 139.616 174.85 135.54C174.85 131.464 171.546 128.16 167.47 128.16C163.394 128.16 160.09 131.464 160.09 135.54C160.09 139.616 163.394 142.92 167.47 142.92Z" fill="#29ABE2" stroke="black" stroke-width="5" stroke-miterlimit="10"/>
<path d="M235.32 152.94C244.93 152.94 252.72 145.15 252.72 135.54C252.72 125.93 244.93 118.14 235.32 118.14C225.71 118.14 217.92 125.93 217.92 135.54C217.92 145.15 225.71 152.94 235.32 152.94Z" fill="white"/>
<path d="M235.32 142.92C239.396 142.92 242.7 139.616 242.7 135.54C242.7 131.464 239.396 128.16 235.32 128.16C231.245 128.16 227.94 131.464 227.94 135.54C227.94 139.616 231.245 142.92 235.32 142.92Z" fill="#29ABE2" stroke="black" stroke-width="5" stroke-miterlimit="10"/>
<path d="M126.62 147.69H121.76C116.48 147.69 112.2 151.97 112.2 157.25V159.04C112.2 167 118.66 173.46 126.62 173.46" fill="#ED83CA"/>
<path d="M126.62 147.69H121.76C116.48 147.69 112.2 151.97 112.2 157.25V159.04C112.2 167 118.66 173.46 126.62 173.46" stroke="black" stroke-width="5" stroke-miterlimit="10"/>
<path d="M126.62 159.36L113.12 151.98" stroke="black" stroke-width="5" stroke-miterlimit="10"/>
<path d="M276.33 147.69H281.19C286.47 147.69 290.75 151.97 290.75 157.25V159.04C290.75 167 284.29 173.46 276.33 173.46" fill="#ED83CA"/>
<path d="M276.33 147.69H281.19C286.47 147.69 290.75 151.97 290.75 157.25V159.04C290.75 167 284.29 173.46 276.33 173.46" stroke="black" stroke-width="5" stroke-miterlimit="10"/>
<path d="M276.33 159.36L289.82 151.98" stroke="black" stroke-width="5" stroke-miterlimit="10"/>
<path d="M355 322.83H48C55.78 306.84 69.86 294.45 87.31 289L124.95 277.22C129.17 275.9 132.04 271.99 132.04 267.57V256.19C132.04 250.43 136.71 245.76 142.46 245.76H260.53C266.29 245.76 270.96 250.43 270.96 256.19V267.57C270.96 271.99 273.83 275.9 278.05 277.22L315.69 289C333.13 294.45 347.22 306.84 355 322.83Z" fill="#FF6633"/>
<path d="M248.29 102.33H223.53C220.399 102.33 217.86 104.869 217.86 108C217.86 111.131 220.399 113.67 223.53 113.67H248.29C251.422 113.67 253.96 111.131 253.96 108C253.96 104.869 251.422 102.33 248.29 102.33Z" fill="#754C24"/>
<path d="M179.46 102.33H154.7C151.569 102.33 149.03 104.869 149.03 108C149.03 111.131 151.569 113.67 154.7 113.67H179.46C182.592 113.67 185.13 111.131 185.13 108C185.13 104.869 182.592 102.33 179.46 102.33Z" fill="#754C24"/>
<path d="M267.7 172.9H266.14C265.25 172.9 264.53 173.6 264.47 174.49C263.65 186.57 253.58 196.13 241.29 196.13C229 196.13 218.93 186.57 218.11 174.49C218.05 173.6 217.33 172.9 216.44 172.9H186.54C185.64 172.9 184.92 173.6 184.86 174.49C184.05 186.57 173.98 196.13 161.68 196.13C149.38 196.13 139.32 186.57 138.51 174.49C138.45 173.6 137.73 172.9 136.83 172.9H135.29C134.24 172.9 133.44 173.84 133.61 174.88C135.53 186.49 140.37 197.18 147.33 206.14C147.34 206.15 147.34 206.16 147.36 206.17C160.02 222.44 179.7 232.98 201.71 232.9C222.38 232.83 240.9 223.63 253.45 209.12C253.46 209.12 253.47 209.1 253.48 209.09C261.69 199.6 267.35 187.83 269.38 174.86C269.55 173.83 268.75 172.9 267.7 172.9ZM181.72 188.29C183.37 186.64 185.65 185.62 188.16 185.62H214.39C216.63 185.62 218.71 186.3 220.43 187.47C220.54 187.55 220.65 187.63 220.76 187.72C223.45 189.67 225.2 192.84 225.2 196.43C225.2 201.46 221.13 205.54 216.09 205.54H189.86C183.89 205.54 179.05 200.7 179.05 194.73C179.05 192.21 180.07 189.94 181.72 188.29Z" fill="#754C24"/>
<path d="M180.09 195.07H224.23" stroke="#020202" stroke-width="5" stroke-linecap="round" stroke-linejoin="round"/>
<path d="M214.71 185.55H189.61C184.352 185.55 180.09 189.812 180.09 195.07V195.08C180.09 200.338 184.352 204.6 189.61 204.6H214.71C219.968 204.6 224.23 200.338 224.23 195.08V195.07C224.23 189.812 219.968 185.55 214.71 185.55Z" stroke="black" stroke-width="5" stroke-miterlimit="10"/>
<path d="M201.48 172.9C205.417 172.9 208.61 169.708 208.61 165.77C208.61 161.832 205.417 158.64 201.48 158.64C197.542 158.64 194.35 161.832 194.35 165.77C194.35 169.708 197.542 172.9 201.48 172.9Z" stroke="black" stroke-width="5" stroke-miterlimit="10"/>
<path d="M207.05 121.83C206.52 119.66 204.58 118.14 202.35 118.14H200.65C198.42 118.14 196.48 119.66 195.95 121.83L188.74 151.36C187.27 157.39 191.83 163.21 198.04 163.21H204.96C211.17 163.21 215.73 157.39 214.26 151.36L207.05 121.83Z" fill="#ED83CA" stroke="black" stroke-width="5" stroke-miterlimit="10"/>
<path d="M259.49 199.4C239.32 234.21 219.15 244.98 201.37 244.15C183.59 244.98 163.41 234.22 143.23 199.4C143.23 199.4 167.72 227.01 201.36 228.04C235.01 227.01 259.49 199.4 259.49 199.4Z" fill="#020202"/>
</g>
<defs>
<clipPath id="clip0_51_1062">
<rect width="307" height="302.83" fill="white" transform="translate(48 20)"/>
</clipPath>
</defs>
</svg>
