<svg width="403" height="323" viewBox="0 0 403 323" fill="none" xmlns="http://www.w3.org/2000/svg">
<g clip-path="url(#clip0_51_1164)">
<g clip-path="url(#clip1_51_1164)">
<path d="M116.5 91.4599C116.5 44.9199 154.15 7.16995 200.65 6.99995C247.28 6.82995 285.43 45.4899 285.43 92.1199V226.12C285.43 233.82 279.19 240.07 271.48 240.07H130.58C122.89 240.07 116.65 233.84 116.63 226.15L116.49 91.4799L116.5 91.4599Z" fill="#754C24"/>
<path d="M283.67 125.72H273.96C273.63 125.72 273.3 125.74 272.98 125.77V103.68C272.98 63.98 240.5 31.07 200.8 31.21C161.21 31.35 129.16 63.49 129.16 103.12L129.22 120.21C129.18 120.59 129.16 120.97 129.16 121.36V125.77C128.84 125.73 128.51 125.72 128.18 125.72H118.47C107.9 125.72 99.3398 134.29 99.3398 144.85V148.42C99.3398 164.35 112.25 177.26 128.18 177.26C128.41 177.26 128.64 177.26 128.86 177.23C131.07 177.06 133.11 178.36 133.9 180.43C136.21 186.48 139.31 192.16 143.07 197.33V268.46H259.07V197.79C262.94 192.52 266.11 186.7 268.44 180.47C269.22 178.39 271.25 177.12 273.47 177.24C273.63 177.24 273.79 177.25 273.96 177.25C281.92 177.25 289.13 174.02 294.35 168.8C299.57 163.58 302.8 156.37 302.8 148.41V144.84C302.8 134.28 294.24 125.71 283.67 125.71V125.72Z" fill="#ED83CA"/>
<path d="M169.04 144.36C179.175 144.36 187.39 136.144 187.39 126.01C187.39 115.876 179.175 107.66 169.04 107.66C158.906 107.66 150.69 115.876 150.69 126.01C150.69 136.144 158.906 144.36 169.04 144.36Z" fill="white" stroke="black" stroke-width="5" stroke-miterlimit="10"/>
<path d="M169.04 133.39C173.116 133.39 176.42 130.086 176.42 126.01C176.42 121.934 173.116 118.63 169.04 118.63C164.964 118.63 161.66 121.934 161.66 126.01C161.66 130.086 164.964 133.39 169.04 133.39Z" fill="#020202"/>
<path d="M232.89 144.36C243.024 144.36 251.24 136.144 251.24 126.01C251.24 115.876 243.024 107.66 232.89 107.66C222.756 107.66 214.54 115.876 214.54 126.01C214.54 136.144 222.756 144.36 232.89 144.36Z" fill="white" stroke="black" stroke-width="5" stroke-miterlimit="10"/>
<path d="M232.89 133.39C236.966 133.39 240.27 130.086 240.27 126.01C240.27 121.934 236.966 118.63 232.89 118.63C228.814 118.63 225.51 121.934 225.51 126.01C225.51 130.086 228.814 133.39 232.89 133.39Z" fill="#020202"/>
<path d="M126.18 138.16H121.32C116.04 138.16 111.76 142.44 111.76 147.72V149.51C111.76 157.47 118.22 163.93 126.18 163.93" fill="#ED83CA"/>
<path d="M126.18 138.16H121.32C116.04 138.16 111.76 142.44 111.76 147.72V149.51C111.76 157.47 118.22 163.93 126.18 163.93" stroke="black" stroke-width="5" stroke-miterlimit="10"/>
<path d="M126.18 149.83L112.69 142.45" stroke="black" stroke-width="5" stroke-miterlimit="10"/>
<path d="M275.9 138.16H280.76C286.04 138.16 290.32 142.44 290.32 147.72V149.51C290.32 157.47 283.86 163.93 275.9 163.93" fill="#ED83CA"/>
<path d="M275.9 138.16H280.76C286.04 138.16 290.32 142.44 290.32 147.72V149.51C290.32 157.47 283.86 163.93 275.9 163.93" stroke="black" stroke-width="5" stroke-miterlimit="10"/>
<path d="M275.9 149.83L289.39 142.45" stroke="black" stroke-width="5" stroke-miterlimit="10"/>
<path d="M186.17 117.25H215.76" stroke="black" stroke-width="5" stroke-miterlimit="10"/>
<path d="M354.14 323.37H48C55.84 307.79 69.74 295.73 86.88 290.38L124.52 278.6C128.74 277.28 131.61 273.37 131.61 268.95V257.57C131.61 251.81 136.28 247.14 142.03 247.14H260.1C265.86 247.14 270.53 251.81 270.53 257.57V268.95C270.53 273.37 273.4 277.28 277.62 278.6L315.26 290.38C332.39 295.73 346.3 307.79 354.14 323.37Z" fill="#CCCC66"/>
<path d="M129.91 77.7499C129.91 44.6399 167.66 17.7899 200.74 17.6699C233.91 17.5499 273.38 45.0499 273.38 78.2199L129.91 77.7499Z" fill="#754C24"/>
<path d="M262.47 78.22H136.01C188.01 78.22 197.45 44.23 199.08 29.25C199.14 28.69 199.19 28.15 199.23 27.65C199.27 28.16 199.32 28.69 199.38 29.25C201.02 44.23 210.45 78.22 262.46 78.22H262.47Z" fill="#ED83CA"/>
<path d="M201.06 171.8C201.06 166.13 196.49 161.54 190.86 161.54C185.23 161.54 180.66 166.13 180.66 171.8C180.66 177.47 185.3 185.62 201.07 185.62C216.84 185.62 221.48 177.47 221.48 171.8C221.48 166.13 216.91 161.54 211.28 161.54C205.65 161.54 201.08 166.13 201.08 171.8" fill="#ED83CA"/>
<path d="M201.06 171.8C201.06 166.13 196.49 161.54 190.86 161.54C185.23 161.54 180.66 166.13 180.66 171.8C180.66 177.47 185.3 185.62 201.07 185.62C216.84 185.62 221.48 177.47 221.48 171.8C221.48 166.13 216.91 161.54 211.28 161.54C205.65 161.54 201.08 166.13 201.08 171.8" stroke="#020202" stroke-width="5" stroke-linecap="round" stroke-linejoin="round"/>
<path d="M180.99 173.57H221.42" stroke="#020202" stroke-width="5" stroke-linecap="round" stroke-linejoin="round"/>
<path d="M205.3 120.13C204.89 118.44 203.37 117.25 201.63 117.25H200.3C198.56 117.25 197.04 118.44 196.63 120.13L191 143.18C189.85 147.89 193.42 152.43 198.26 152.43H203.67C208.52 152.43 212.08 147.89 210.93 143.18L205.3 120.13Z" fill="#ED83CA" stroke="#020202" stroke-width="5" stroke-linecap="round" stroke-linejoin="round"/>
<path d="M213.86 98.67C213.86 98.67 219.72 93.91 231.74 93.91C243.76 93.91 249.92 98.67 249.92 98.67" stroke="#020202" stroke-width="15" stroke-linecap="round" stroke-linejoin="round"/>
<path d="M152.01 98.67C152.01 98.67 157.87 93.91 169.89 93.91C181.91 93.91 188.07 98.67 188.07 98.67" stroke="#020202" stroke-width="15" stroke-linecap="round" stroke-linejoin="round"/>
<path d="M281.83 173.95H281.82C279.959 173.95 278.45 175.459 278.45 177.32V200.6C278.45 202.461 279.959 203.97 281.82 203.97H281.83C283.691 203.97 285.2 202.461 285.2 200.6V177.32C285.2 175.459 283.691 173.95 281.83 173.95Z" stroke="black" stroke-width="5" stroke-miterlimit="10"/>
<path d="M120.31 173.95H120.3C118.438 173.95 116.93 175.459 116.93 177.32V200.6C116.93 202.461 118.438 203.97 120.3 203.97H120.31C122.171 203.97 123.68 202.461 123.68 200.6V177.32C123.68 175.459 122.171 173.95 120.31 173.95Z" stroke="black" stroke-width="5" stroke-miterlimit="10"/>
<path d="M254.22 203.33C235.46 232.65 216.85 241.93 200.32 241.16C184.22 241.91 166.15 233.16 147.91 205.67V201.98C157.05 210.11 176.36 224.32 200.31 225.05C225.45 224.28 245.46 208.67 253.98 200.83L254.22 203.33Z" fill="#020202"/>
</g>
</g>
<defs>
<clipPath id="clip0_51_1164">
<rect width="403" height="323" fill="white"/>
</clipPath>
<clipPath id="clip1_51_1164">
<rect width="306.14" height="316.37" fill="white" transform="translate(48 7)"/>
</clipPath>
</defs>
</svg>
