<svg width="403" height="323" viewBox="0 0 403 323" fill="none" xmlns="http://www.w3.org/2000/svg">
<g clip-path="url(#clip0_49_2194)">
<path d="M419.853 395.611C405.934 347.49 366.968 312.112 319.916 302.356C309.8 297.789 298.808 294.896 287.319 293.988V278.905C287.319 267.907 278.401 258.993 267.398 258.993H136.063C125.06 258.993 116.142 267.907 116.142 278.905V295.673C108.291 297.275 100.752 299.824 93.6668 303.192C48.2889 314.004 11.0028 348.765 -2.5438 395.611L-71.4751 764.262C-74.9602 782.906 -60.6477 800.133 -41.6736 800.133H41.2694L65.4793 682.935H351.512L383.623 839L466.325 810.266C483.088 804.442 493.073 787.243 489.813 769.802L419.847 395.611H419.853Z" fill="black" stroke="black" stroke-width="5" stroke-miterlimit="10"/>
<g clip-path="url(#clip1_49_2194)">
<path d="M292.848 127.367H282.111C281.743 127.367 281.38 127.386 281.028 127.425V103.027C281.024 59.1888 245.11 22.8433 201.205 22.9999C157.42 23.1566 121.976 58.6501 121.976 102.416L122.041 121.288C121.995 121.705 121.976 122.129 121.976 122.557V127.429C121.624 127.39 121.26 127.371 120.893 127.371H110.156C98.4704 127.371 89.0039 136.832 89.0039 148.494V152.441C89.0039 170.029 103.284 184.289 120.897 184.289C121.149 184.289 121.402 184.278 121.651 184.262C124.096 184.079 126.35 185.508 127.222 187.793C129.778 194.476 133.206 200.746 137.366 206.451V285.004H265.642V206.963C269.924 201.14 273.429 194.717 276.008 187.835C276.869 185.539 279.119 184.14 281.571 184.27C281.751 184.282 281.931 184.285 282.111 184.285C290.915 184.285 298.89 180.72 304.66 174.958C310.43 169.196 314 161.233 314 152.441V148.494C314 136.828 304.53 127.371 292.848 127.371V127.367Z" fill="#ED83CA"/>
<path d="M165.095 149.124C175.725 149.124 184.342 140.519 184.342 129.905C184.342 119.29 175.725 110.685 165.095 110.685C154.466 110.685 145.849 119.29 145.849 129.905C145.849 140.519 154.466 149.124 165.095 149.124Z" fill="white" stroke="black" stroke-width="5" stroke-miterlimit="10"/>
<path d="M165.095 138.051C169.601 138.051 173.253 134.404 173.253 129.905C173.253 125.405 169.601 121.758 165.095 121.758C160.59 121.758 156.938 125.405 156.938 129.905C156.938 134.404 160.59 138.051 165.095 138.051Z" fill="#020202"/>
<path d="M237.904 149.124C248.534 149.124 257.151 140.519 257.151 129.905C257.151 119.29 248.534 110.685 237.904 110.685C227.274 110.685 218.657 119.29 218.657 129.905C218.657 140.519 227.274 149.124 237.904 149.124Z" fill="white" stroke="black" stroke-width="5" stroke-miterlimit="10"/>
<path d="M237.904 138.051C242.409 138.051 246.062 134.404 246.062 129.905C246.062 125.405 242.409 121.758 237.904 121.758C233.399 121.758 229.746 125.405 229.746 129.905C229.746 134.404 233.399 138.051 237.904 138.051Z" fill="#020202"/>
<path d="M187.097 98.5952H146.204C142.54 98.5952 139.569 101.562 139.569 105.221V108.954C139.569 112.613 142.54 115.58 146.204 115.58H187.097C190.761 115.58 193.732 112.613 193.732 108.954V105.221C193.732 101.562 190.761 98.5952 187.097 98.5952Z" fill="#020202"/>
<path d="M257.017 98.5952H216.124C212.46 98.5952 209.489 101.562 209.489 105.221V108.954C209.489 112.613 212.46 115.58 216.124 115.58H257.017C260.681 115.58 263.652 112.613 263.652 108.954V105.221C263.652 101.562 260.681 98.5952 257.017 98.5952Z" fill="#020202"/>
<path d="M200.789 168.264C203.927 168.264 206.471 165.723 206.471 162.59C206.471 159.456 203.927 156.915 200.789 156.915C197.65 156.915 195.106 159.456 195.106 162.59C195.106 165.723 197.65 168.264 200.789 168.264Z" fill="white" stroke="black" stroke-width="5" stroke-linecap="round" stroke-linejoin="round"/>
<path d="M213.538 145.999C213.297 145.999 213.056 146.01 212.823 146.033L210.083 134.024C209.203 130.161 205.759 127.421 201.791 127.425H201.175C197.207 127.425 193.771 130.172 192.895 134.039L190.186 146.01C190.109 146.01 190.033 145.999 189.956 145.999C185.896 145.999 182.605 149.285 182.605 153.339C182.605 157.393 185.896 160.679 189.956 160.679C191.85 160.679 193.572 159.957 194.877 158.784C196.675 159.976 198.841 160.683 201.206 160.683H201.822C204.301 160.683 206.563 159.9 208.411 158.593C209.735 159.884 211.545 160.679 213.542 160.679C217.602 160.679 220.892 157.393 220.892 153.339C220.892 149.285 217.602 145.999 213.542 145.999H213.538Z" fill="#ED83CA" stroke="black" stroke-width="5" stroke-miterlimit="10"/>
<path d="M118.693 141.112H113.324C107.481 141.112 102.748 145.842 102.748 151.673V153.645C102.748 162.441 109.888 169.571 118.696 169.571" fill="#ED83CA"/>
<path d="M118.693 141.112H113.324C107.481 141.112 102.748 145.842 102.748 151.673V153.645C102.748 162.441 109.888 169.571 118.696 169.571" stroke="black" stroke-width="5" stroke-miterlimit="10"/>
<path d="M118.693 154L103.773 145.85" stroke="black" stroke-width="5" stroke-miterlimit="10"/>
<path d="M284.261 141.112H289.63C295.473 141.112 300.206 145.842 300.206 151.673V153.645C300.206 162.441 293.066 169.571 284.257 169.571" fill="#ED83CA"/>
<path d="M284.261 141.112H289.63C295.473 141.112 300.206 145.842 300.206 151.673V153.645C300.206 162.441 293.066 169.571 284.257 169.571" stroke="black" stroke-width="5" stroke-miterlimit="10"/>
<path d="M284.261 154L299.18 145.85" stroke="black" stroke-width="5" stroke-miterlimit="10"/>
<path d="M184.343 126.164H220.472" stroke="black" stroke-width="5" stroke-miterlimit="10"/>
<path d="M145.845 209.137C145.845 209.137 200.306 269.781 257.151 209.137C257.151 209.137 201.45 303.903 145.845 209.137Z" fill="#020202"/>
<path d="M200.496 182.819C200.496 179.054 195.906 176 190.248 176C184.589 176 180 179.054 180 182.819C180 186.584 184.657 192 200.5 192C216.343 192 221 186.584 221 182.819C221 179.054 216.411 176 210.752 176C205.094 176 200.504 179.054 200.504 182.819" stroke="#020202" stroke-width="5" stroke-linecap="round" stroke-linejoin="round"/>
<path d="M180 184H220" stroke="#020202" stroke-width="5" stroke-linecap="round" stroke-linejoin="round"/>
</g>
</g>
<defs>
<clipPath id="clip0_49_2194">
<rect width="403" height="323" fill="white"/>
</clipPath>
<clipPath id="clip1_49_2194">
<rect width="225" height="262" fill="white" transform="translate(89 23)"/>
</clipPath>
</defs>
</svg>
