<svg width="403" height="323" viewBox="0 0 403 323" fill="none" xmlns="http://www.w3.org/2000/svg">
<g clip-path="url(#clip0_51_1037)">
<g clip-path="url(#clip1_51_1037)">
<path d="M283.68 125.84H273.97C273.64 125.84 273.31 125.86 272.99 125.89V103.8C272.99 64.1 240.51 31.19 200.81 31.33C161.22 31.47 129.17 63.61 129.17 103.24L129.23 120.33C129.19 120.71 129.17 121.09 129.17 121.48V125.89C128.85 125.85 128.52 125.84 128.19 125.84H118.48C107.91 125.84 99.3496 134.41 99.3496 144.97V148.54C99.3496 164.47 112.26 177.38 128.19 177.38C128.42 177.38 128.65 177.38 128.87 177.35C131.08 177.18 133.12 178.48 133.91 180.55C136.22 186.6 139.32 192.28 143.08 197.45V268.58H259.08V197.91C262.95 192.64 266.12 186.82 268.45 180.59C269.23 178.51 271.26 177.24 273.48 177.36C273.64 177.36 273.8 177.37 273.97 177.37C281.93 177.37 289.14 174.14 294.36 168.92C299.58 163.7 302.81 156.49 302.81 148.53V144.96C302.81 134.4 294.25 125.83 283.68 125.83V125.84Z" fill="#ED83CA"/>
<path d="M126.2 138.28H121.34C116.06 138.28 111.78 142.56 111.78 147.84V149.63C111.78 157.59 118.24 164.05 126.2 164.05" fill="#ED83CA"/>
<path d="M126.2 138.28H121.34C116.06 138.28 111.78 142.56 111.78 147.84V149.63C111.78 157.59 118.24 164.05 126.2 164.05" stroke="black" stroke-width="5" stroke-miterlimit="10"/>
<path d="M126.2 149.95L112.7 142.57" stroke="black" stroke-width="5" stroke-miterlimit="10"/>
<path d="M275.91 138.28H280.77C286.05 138.28 290.33 142.56 290.33 147.84V149.63C290.33 157.59 283.87 164.05 275.91 164.05" fill="#ED83CA"/>
<path d="M275.91 138.28H280.77C286.05 138.28 290.33 142.56 290.33 147.84V149.63C290.33 157.59 283.87 164.05 275.91 164.05" stroke="black" stroke-width="5" stroke-miterlimit="10"/>
<path d="M275.91 149.95L289.4 142.57" stroke="black" stroke-width="5" stroke-miterlimit="10"/>
<path d="M354.16 323.48H48C55.85 307.9 69.75 295.84 86.89 290.49L124.53 278.71C128.75 277.39 131.62 273.48 131.62 269.06V257.68C131.62 251.92 136.29 247.25 142.04 247.25H260.11C265.87 247.25 270.54 251.92 270.54 257.68V269.06C270.54 273.48 273.41 277.39 277.63 278.71L315.27 290.49C332.4 295.84 346.31 307.9 354.16 323.48Z" fill="#B13431"/>
<path d="M281.84 170.93H281.83C279.969 170.93 278.46 172.439 278.46 174.3V197.58C278.46 199.441 279.969 200.95 281.83 200.95H281.84C283.701 200.95 285.21 199.441 285.21 197.58V174.3C285.21 172.439 283.701 170.93 281.84 170.93Z" stroke="black" stroke-width="5" stroke-miterlimit="10"/>
<path d="M120.32 170.93H120.31C118.449 170.93 116.94 172.439 116.94 174.3V197.58C116.94 199.441 118.449 200.95 120.31 200.95H120.32C122.182 200.95 123.69 199.441 123.69 197.58V174.3C123.69 172.439 122.182 170.93 120.32 170.93Z" stroke="black" stroke-width="5" stroke-miterlimit="10"/>
<path d="M196.74 7H205.4C244.55 7 276.33 38.78 276.33 77.92V81.4C276.33 85.66 272.87 89.12 268.61 89.12H133.55C129.29 89.12 125.83 85.66 125.83 81.4V77.92C125.82 38.78 157.6 7 196.74 7Z" fill="black"/>
<path d="M168.07 142.28C177.68 142.28 185.47 134.49 185.47 124.88C185.47 115.27 177.68 107.48 168.07 107.48C158.46 107.48 150.67 115.27 150.67 124.88C150.67 134.49 158.46 142.28 168.07 142.28Z" fill="white" stroke="black" stroke-width="5" stroke-miterlimit="10"/>
<path d="M168.07 132.26C172.146 132.26 175.45 128.956 175.45 124.88C175.45 120.804 172.146 117.5 168.07 117.5C163.995 117.5 160.69 120.804 160.69 124.88C160.69 128.956 163.995 132.26 168.07 132.26Z" fill="#020202"/>
<path d="M233.91 142.28C243.52 142.28 251.31 134.49 251.31 124.88C251.31 115.27 243.52 107.48 233.91 107.48C224.3 107.48 216.51 115.27 216.51 124.88C216.51 134.49 224.3 142.28 233.91 142.28Z" fill="white" stroke="black" stroke-width="5" stroke-miterlimit="10"/>
<path d="M233.91 132.26C237.986 132.26 241.29 128.956 241.29 124.88C241.29 120.804 237.986 117.5 233.91 117.5C229.834 117.5 226.53 120.804 226.53 124.88C226.53 128.956 229.834 132.26 233.91 132.26Z" fill="#020202"/>
<path d="M181.17 97.46H151.67C147.942 97.46 144.92 100.482 144.92 104.21C144.92 107.938 147.942 110.96 151.67 110.96H181.17C184.898 110.96 187.92 107.938 187.92 104.21C187.92 100.482 184.898 97.46 181.17 97.46Z" fill="#020202"/>
<path d="M250.5 97.46H221C217.272 97.46 214.25 100.482 214.25 104.21C214.25 107.938 217.272 110.96 221 110.96H250.5C254.228 110.96 257.25 107.938 257.25 104.21C257.25 100.482 254.228 97.46 250.5 97.46Z" fill="#020202"/>
<path d="M201.09 159.61C203.929 159.61 206.23 157.309 206.23 154.47C206.23 151.631 203.929 149.33 201.09 149.33C198.251 149.33 195.95 151.631 195.95 154.47C195.95 157.309 198.251 159.61 201.09 159.61Z" fill="#ED83CA" stroke="black" stroke-width="5" stroke-miterlimit="10"/>
<path d="M185.57 123.49H218.24" stroke="black" stroke-width="5" stroke-miterlimit="10"/>
<path d="M201.08 168.36C201.08 163.96 196.51 160.39 190.88 160.39C185.25 160.39 180.68 163.96 180.68 168.36C180.68 172.76 185.32 179.09 201.09 179.09C216.86 179.09 221.5 172.76 221.5 168.36C221.5 163.96 216.93 160.39 211.3 160.39C205.67 160.39 201.1 163.96 201.1 168.36" fill="#ED83CA"/>
<path d="M201.08 168.36C201.08 163.96 196.51 160.39 190.88 160.39C185.25 160.39 180.68 163.96 180.68 168.36C180.68 172.76 185.32 179.09 201.09 179.09C216.86 179.09 221.5 172.76 221.5 168.36C221.5 163.96 216.93 160.39 211.3 160.39C205.67 160.39 201.1 163.96 201.1 168.36" stroke="#020202" stroke-width="5" stroke-linecap="round" stroke-linejoin="round"/>
<path d="M181.01 169.75H221.44" stroke="#020202" stroke-width="5" stroke-linecap="round" stroke-linejoin="round"/>
<path d="M205.39 120.36C204.98 118.68 203.48 117.5 201.75 117.5H200.43C198.7 117.5 197.2 118.68 196.79 120.36L191.2 143.23C190.06 147.9 193.6 152.41 198.4 152.41H203.76C208.57 152.41 212.1 147.91 210.96 143.23L205.37 120.36H205.39Z" fill="#ED83CA" stroke="black" stroke-width="5" stroke-miterlimit="10"/>
<path d="M258.24 143.95C244.92 143.95 234.13 154.75 234.13 168.06Z" fill="#ED83CA"/>
<path d="M258.24 143.95C244.92 143.95 234.13 154.75 234.13 168.06" stroke="black" stroke-width="5" stroke-miterlimit="10"/>
<path d="M143.93 143.95C157.25 143.95 168.04 154.75 168.04 168.06Z" fill="#ED83CA"/>
<path d="M143.93 143.95C157.25 143.95 168.04 154.75 168.04 168.06" stroke="black" stroke-width="5" stroke-miterlimit="10"/>
<path d="M254.23 203.45C235.47 232.77 216.86 242.05 200.33 241.28C184.23 242.03 166.16 233.28 147.92 205.79V202.1C157.06 210.23 176.37 224.44 200.32 225.17C225.46 224.4 245.47 208.79 253.99 200.95L254.23 203.45Z" fill="#020202"/>
</g>
</g>
<defs>
<clipPath id="clip0_51_1037">
<rect width="403" height="323" fill="white"/>
</clipPath>
<clipPath id="clip1_51_1037">
<rect width="306.16" height="316.48" fill="white" transform="translate(48 7)"/>
</clipPath>
</defs>
</svg>
