<svg width="403" height="323" viewBox="0 0 403 323" fill="none" xmlns="http://www.w3.org/2000/svg">
<g clip-path="url(#clip0_29_1160)">
<path d="M462.088 792.354L383.373 819.702L352.339 668.871L351.929 666.875H349.891H68.3298H66.2935L65.8815 668.869L42.4621 782.24H-37.1478C-54.2617 782.24 -67.1688 766.703 -64.0259 749.89L3.80537 387.122C16.9174 341.933 52.8993 308.427 96.6561 298.001L96.9123 297.94L97.1501 297.827C103.945 294.596 111.174 292.153 118.701 290.617L120.701 290.209V288.167V271.662C120.701 262.218 128.359 254.561 137.81 254.561H267.092C276.543 254.561 284.201 262.218 284.201 271.662V286.509V288.819L286.504 289.001C297.522 289.872 308.061 292.646 317.76 297.024L318.011 297.138L318.281 297.194C363.635 306.598 401.227 340.677 414.712 387.07L483.571 755.344C486.554 771.295 477.422 787.027 462.088 792.354Z" fill="#912D2D" stroke="black" stroke-width="5"/>
<path d="M120.35 177.999H133.537V132.03H110.34C104.541 132.025 99.8398 136.727 99.8398 142.525V157.488C99.8398 168.815 109.024 177.999 120.35 177.999Z" fill="#ED83CA"/>
<path d="M284.631 177.999H271.444V132.03H294.641C300.44 132.03 305.141 136.731 305.141 142.529V157.493C305.141 168.82 295.957 178.003 284.631 178.003V177.999Z" fill="#ED83CA"/>
<path d="M263.644 184.779H141.574V278.013H263.644V184.779Z" fill="#ED83CA"/>
<path d="M276.594 172.899C276.594 213.733 243.564 246.854 202.762 247.005C161.856 247.151 128.383 213.235 128.383 172.328V75.9802C128.383 69.2226 133.861 63.7443 140.619 63.7443H264.235C270.983 63.7443 276.461 69.2089 276.47 75.9619L276.589 172.904L276.594 172.899Z" fill="#ED83CA"/>
<path d="M203.059 173.184C206.227 173.184 208.795 170.615 208.795 167.447C208.795 164.279 206.227 161.71 203.059 161.71C199.891 161.71 197.322 164.279 197.322 167.447C197.322 170.615 199.891 173.184 203.059 173.184Z" stroke="black" stroke-width="5" stroke-linecap="round" stroke-linejoin="round"/>
<path d="M141.77 214.931C141.77 214.931 201.815 282.665 264.489 214.931C264.489 214.931 203.077 320.776 141.77 214.931Z" fill="#020202"/>
<path d="M202.601 190.229C202.601 186.158 197.546 182.856 191.311 182.856C185.077 182.856 180.021 186.158 180.021 190.229C180.021 194.301 185.154 200.158 202.609 200.158C220.064 200.158 225.197 194.301 225.197 190.229C225.197 186.158 220.141 182.856 213.907 182.856C207.673 182.856 202.617 186.158 202.617 190.229" stroke="black" stroke-width="5" stroke-miterlimit="10"/>
<path d="M180.021 191.507H225.197" stroke="#020202" stroke-width="4.27825" stroke-linecap="round" stroke-linejoin="round"/>
<path d="M113.7 168.912C113.7 166.527 115.633 164.594 118.018 164.594V164.594C120.403 164.594 122.336 166.527 122.336 168.912V188.495C122.336 190.88 120.403 192.812 118.018 192.812C115.633 192.812 113.7 190.88 113.7 188.495V168.912Z" stroke="black" stroke-width="5" stroke-miterlimit="10"/>
<path d="M121.391 86.2582C121.391 41.9328 157.323 6 201.649 6V6C245.974 6 281.907 41.9328 281.907 86.2582V101.202C281.907 103.831 279.776 105.962 277.147 105.962H126.151C123.522 105.962 121.391 103.831 121.391 101.202V86.2582Z" fill="#020202"/>
<path d="M281.907 173.718C281.907 171.333 283.84 169.4 286.225 169.4V169.4C288.61 169.4 290.543 171.333 290.543 173.718V193.301C290.543 195.686 288.61 197.618 286.225 197.618C283.84 197.618 281.907 195.686 281.907 193.301V173.718Z" stroke="black" stroke-width="5" stroke-miterlimit="10"/>
<path d="M168.034 160.297C178.251 160.297 186.533 152.026 186.533 141.823C186.533 131.621 178.251 123.35 168.034 123.35C157.817 123.35 149.534 131.621 149.534 141.823C149.534 152.026 157.817 160.297 168.034 160.297Z" fill="white" stroke="black" stroke-width="5" stroke-miterlimit="10"/>
<path d="M168.034 149.653C172.364 149.653 175.875 146.148 175.875 141.823C175.875 137.499 172.364 133.993 168.034 133.993C163.703 133.993 160.192 137.499 160.192 141.823C160.192 146.148 163.703 149.653 168.034 149.653Z" fill="#020202"/>
<path d="M238.015 160.297C248.232 160.297 256.515 152.026 256.515 141.823C256.515 131.621 248.232 123.35 238.015 123.35C227.798 123.35 219.516 131.621 219.516 141.823C219.516 152.026 227.798 160.297 238.015 160.297Z" fill="white" stroke="black" stroke-width="5" stroke-miterlimit="10"/>
<path d="M238.016 149.653C242.347 149.653 245.857 146.148 245.857 141.823C245.857 137.499 242.347 133.993 238.016 133.993C233.685 133.993 230.175 137.499 230.175 141.823C230.175 146.148 233.685 149.653 238.016 149.653Z" fill="#020202"/>
<path d="M189.181 111.729H149.875C146.353 111.729 143.498 114.581 143.498 118.098V121.686C143.498 125.203 146.353 128.055 149.875 128.055H189.181C192.703 128.055 195.558 125.203 195.558 121.686V118.098C195.558 114.581 192.703 111.729 189.181 111.729Z" fill="#020202"/>
<path d="M256.387 111.729H217.081C213.559 111.729 210.704 114.581 210.704 118.098V121.686C210.704 125.203 213.559 128.055 217.081 128.055H256.387C259.909 128.055 262.764 125.203 262.764 121.686V118.098C262.764 114.581 259.909 111.729 256.387 111.729Z" fill="#020202"/>
<path d="M207.59 131.944C207.159 130.235 205.586 129.031 203.779 129.031H202.399C200.592 129.031 199.019 130.232 198.588 131.944L192.743 155.245C191.549 160.004 195.252 164.594 200.283 164.594H205.898C210.929 164.594 214.632 160.004 213.438 155.245L207.593 131.944H207.59Z" fill="#ED83CA" stroke="black" stroke-width="5" stroke-miterlimit="10"/>
<path d="M244.902 185.259C243.46 177.25 244.806 161.134 261.722 160.749" stroke="black" stroke-width="5" stroke-miterlimit="10"/>
<path d="M160.318 185.259C161.76 177.25 160.414 161.134 143.497 160.749" stroke="black" stroke-width="5" stroke-miterlimit="10"/>
</g>
<defs>
<clipPath id="clip0_29_1160">
<rect width="403" height="323" fill="white"/>
</clipPath>
</defs>
</svg>
