<svg width="403" height="323" viewBox="0 0 403 323" fill="none" xmlns="http://www.w3.org/2000/svg">
<g clip-path="url(#clip0_49_2286)">
<path d="M417.637 405.611C403.718 357.49 364.752 322.112 317.7 312.356C307.584 307.789 296.593 304.896 285.103 303.988V288.905C285.103 277.907 276.185 268.993 265.183 268.993H133.847C122.845 268.993 113.927 277.907 113.927 288.905V305.673C106.075 307.275 98.5361 309.824 91.451 313.192C46.073 324.004 8.787 358.765 -4.75962 405.611L-73.6909 774.262C-77.1761 792.906 -62.8635 810.133 -43.8894 810.133H39.0535L63.2635 692.935H349.296L381.407 849L464.109 820.266C480.873 814.442 490.858 797.243 487.597 779.802L417.631 405.611H417.637Z" fill="#AB6AFF" stroke="black" stroke-width="5" stroke-miterlimit="10"/>
<path d="M289.421 175.306V75.7185C289.421 67.5886 282.732 61 274.478 61H123.509C115.265 61 108.581 67.5738 108.566 75.6938L108.421 176" fill="#020202"/>
<path d="M113.339 187.947H127.058V140.121H102.924C96.8915 140.116 92 145.007 92 151.04V166.608C92 178.392 101.555 187.947 113.339 187.947Z" fill="#ED83CA"/>
<path d="M284.255 187.947H270.536V140.121H294.67C300.703 140.121 305.594 145.012 305.594 151.044V166.612C305.594 178.397 296.039 187.951 284.255 187.951V187.947Z" fill="#ED83CA"/>
<path d="M262.421 195H135.421V292H262.421V195Z" fill="#ED83CA"/>
<path d="M275.893 188.64C275.893 231.123 241.529 265.582 199.08 265.739C156.521 265.891 121.696 230.605 121.696 188.046V87.8069C121.696 80.7764 127.395 75.0768 134.426 75.0768H263.035C270.056 75.0768 275.755 80.7621 275.765 87.7879L275.889 188.645L275.893 188.64Z" fill="#ED83CA"/>
<path d="M135.623 232.37C135.623 232.37 198.094 302.84 263.3 232.37C263.3 232.37 199.406 342.491 135.623 232.37Z" fill="#020202"/>
<path d="M198.79 207.626C198.79 200.311 192.857 194.378 185.541 194.378C178.225 194.378 172.293 200.311 172.293 207.626C172.293 214.942 178.316 225.467 198.799 225.467C219.282 225.467 225.305 214.942 225.305 207.626C225.305 200.311 219.373 194.378 212.057 194.378C204.741 194.378 198.809 200.311 198.809 207.626" fill="#EA533D"/>
<path d="M198.79 207.626C198.79 200.311 192.857 194.378 185.541 194.378C178.225 194.378 172.293 200.311 172.293 207.626C172.293 214.942 178.316 225.467 198.799 225.467C219.282 225.467 225.305 214.942 225.305 207.626C225.305 200.311 219.373 194.378 212.057 194.378C204.741 194.378 198.809 200.311 198.809 207.626" stroke="#020202" stroke-width="4.27825" stroke-linecap="round" stroke-linejoin="round"/>
<path d="M172.726 209.922H225.23" stroke="#020202" stroke-width="4.27825" stroke-linecap="round" stroke-linejoin="round"/>
<path d="M203.182 143.961C202.764 142.25 201.233 141.047 199.47 141.047H198.124C196.366 141.047 194.83 142.25 194.412 143.961L188.717 167.278C187.552 172.041 191.16 176.633 196.061 176.633H201.528C206.429 176.633 210.037 172.041 208.872 167.278L203.177 143.961H203.182Z" fill="#ED83CA" stroke="black" stroke-width="4.27825" stroke-miterlimit="10"/>
<path d="M163.504 167.563C173.808 167.563 182.162 159.21 182.162 148.905C182.162 138.601 173.808 130.247 163.504 130.247C153.199 130.247 144.846 138.601 144.846 148.905C144.846 159.21 153.199 167.563 163.504 167.563Z" fill="white" stroke="black" stroke-width="4.27825" stroke-miterlimit="10"/>
<path d="M163.504 157.694C168.358 157.694 172.293 153.759 172.293 148.905C172.293 144.051 168.358 140.116 163.504 140.116C158.65 140.116 154.714 144.051 154.714 148.905C154.714 153.759 158.65 157.694 163.504 157.694Z" fill="#020202"/>
<path d="M234.09 167.563C244.395 167.563 252.748 159.21 252.748 148.905C252.748 138.601 244.395 130.247 234.09 130.247C223.786 130.247 215.432 138.601 215.432 148.905C215.432 159.21 223.786 167.563 234.09 167.563Z" fill="white" stroke="black" stroke-width="4.27825" stroke-miterlimit="10"/>
<path d="M234.09 157.694C238.944 157.694 242.88 153.759 242.88 148.905C242.88 144.051 238.944 140.116 234.09 140.116C229.236 140.116 225.301 144.051 225.301 148.905C225.301 153.759 229.236 157.694 234.09 157.694Z" fill="#020202"/>
<path d="M183.236 112.545H152.414C150.138 112.545 148.292 114.39 148.292 116.666C148.292 118.942 150.138 120.788 152.414 120.788H183.236C185.512 120.788 187.358 118.942 187.358 116.666C187.358 114.39 185.512 112.545 183.236 112.545Z" fill="#020202"/>
<path d="M245.527 112.545H214.705C212.429 112.545 210.583 114.39 210.583 116.666C210.583 118.942 212.429 120.788 214.705 120.788H245.527C247.803 120.788 249.649 118.942 249.649 116.666C249.649 114.39 247.803 112.545 245.527 112.545Z" fill="#020202"/>
<path d="M158.394 89.7275C180.41 89.7275 198.257 71.8799 198.257 49.8638C198.257 27.8476 180.41 10 158.394 10C136.377 10 118.53 27.8476 118.53 49.8638C118.53 71.8799 136.377 89.7275 158.394 89.7275Z" fill="#020202"/>
<path d="M185.299 89.7275C207.315 89.7275 225.163 71.8799 225.163 49.8638C225.163 27.8476 207.315 10 185.299 10C163.283 10 145.436 27.8476 145.436 49.8638C145.436 71.8799 163.283 89.7275 185.299 89.7275Z" fill="#020202"/>
<path d="M212.209 89.7275C234.225 89.7275 252.073 71.8799 252.073 49.8638C252.073 27.8476 234.225 10 212.209 10C190.193 10 172.345 27.8476 172.345 49.8638C172.345 71.8799 190.193 89.7275 212.209 89.7275Z" fill="#020202"/>
<path d="M239.158 89.8131C261.197 89.8131 279.064 71.9463 279.064 49.9065C279.064 27.8668 261.197 10 239.158 10C217.118 10 199.251 27.8668 199.251 49.9065C199.251 71.9463 217.118 89.8131 239.158 89.8131Z" fill="#020202"/>
<path d="M275.836 139.146H284.821V164.012C284.821 166.493 282.81 168.504 280.329 168.504C277.847 168.504 275.836 166.493 275.836 164.012V139.146Z" fill="#020202"/>
<path d="M113.087 139.146H122.071V164.012C122.071 166.493 120.06 168.504 117.579 168.504C115.098 168.504 113.087 166.493 113.087 164.012V139.146Z" fill="#020202"/>
</g>
<defs>
<clipPath id="clip0_49_2286">
<rect width="403" height="323" fill="white"/>
</clipPath>
</defs>
</svg>
