<svg width="403" height="323" viewBox="0 0 403 323" fill="none" xmlns="http://www.w3.org/2000/svg">
<g clip-path="url(#clip0_49_2239)">
<path d="M417.637 405.611C403.718 357.49 364.752 322.112 317.7 312.356C307.584 307.789 296.593 304.896 285.103 303.988V288.905C285.103 277.907 276.185 268.993 265.183 268.993H133.847C122.845 268.993 113.927 277.907 113.927 288.905V305.673C106.075 307.275 98.5361 309.824 91.451 313.192C46.073 324.004 8.787 358.765 -4.75962 405.611L-73.6909 774.262C-77.1761 792.906 -62.8635 810.133 -43.8894 810.133H39.0535L63.2635 692.935H349.296L381.407 849L464.109 820.266C480.873 814.442 490.858 797.243 487.597 779.802L417.631 405.611H417.637Z" fill="#AB6AFF" stroke="black" stroke-width="5" stroke-miterlimit="10"/>
<path d="M127.83 190.416H139.936V148.213H118.639C113.316 148.209 109 152.525 109 157.852V171.59C109 181.989 117.431 190.42 127.83 190.42V190.416Z" fill="#ED83CA"/>
<path d="M275.651 190.416H263.545V148.213H284.841C290.165 148.213 294.481 152.529 294.481 157.852V171.59C294.481 181.989 286.05 190.42 275.651 190.42V190.416Z" fill="#ED83CA"/>
<path d="M115.916 112.239C115.916 64.7173 154.352 26.1721 201.836 26.0001C249.442 25.8281 288.394 65.3004 288.394 112.91V268.5C288.394 276.365 282.018 282.741 274.153 282.741H130.295C122.439 282.741 116.067 276.378 116.054 268.525L115.916 112.243V112.239Z" fill="#754C24"/>
<path fill-rule="evenodd" clip-rule="evenodd" d="M200.238 53.7698C200.238 53.7698 200.176 54.8082 200.237 56.6049L200.238 53.7698ZM200.391 59.2573C200.309 58.2526 200.262 57.3615 200.237 56.6049L200.234 60.8943C198.556 76.2031 188.896 110.86 135.833 110.86H141.831C136.388 111.639 132.204 116.321 132.204 121.979V175.638C132.204 187.015 135.024 197.803 140 207.311V295H260V208.702C265.275 199.036 268.272 187.949 268.272 176.162L268.268 176.167L268.159 121.963C268.151 116.308 263.968 111.638 258.532 110.86H264.95C211.887 110.86 202.227 76.2031 200.548 60.8943L200.546 56.6049C200.606 54.8082 200.545 53.7698 200.545 53.7698L200.546 56.6049C200.521 57.3615 200.474 58.2526 200.391 59.2573Z" fill="#ED83CA"/>
<path d="M200.496 202.819C200.496 199.054 195.906 196 190.248 196C184.589 196 180 199.054 180 202.819C180 206.584 184.657 212 200.5 212C216.343 212 221 206.584 221 202.819C221 199.054 216.411 196 210.752 196C205.094 196 200.504 199.054 200.504 202.819" stroke="#020202" stroke-width="5" stroke-linecap="round" stroke-linejoin="round"/>
<path d="M180 204H220" stroke="#020202" stroke-width="5" stroke-linecap="round" stroke-linejoin="round"/>
<path d="M207.096 158.13C206.465 156.881 204.158 156 201.509 156H199.486C196.837 156 194.53 156.878 193.899 158.13L185.33 175.165C183.58 178.644 189.008 182 196.384 182H204.616C211.992 182 217.42 178.644 215.67 175.165L207.101 158.13H207.096Z" fill="#ED83CA" stroke="black" stroke-width="5" stroke-miterlimit="10"/>
<path d="M169.097 166.846C178.19 166.846 185.561 159.474 185.561 150.381C185.561 141.289 178.19 133.917 169.097 133.917C160.004 133.917 152.632 141.289 152.632 150.381C152.632 159.474 160.004 166.846 169.097 166.846Z" fill="white" stroke="black" stroke-width="5" stroke-miterlimit="10"/>
<path d="M169.097 158.138C173.38 158.138 176.853 154.665 176.853 150.382C176.853 146.098 173.38 142.625 169.097 142.625C164.813 142.625 161.341 146.098 161.341 150.382C161.341 154.665 164.813 158.138 169.097 158.138Z" fill="#020202"/>
<path d="M231.384 166.846C240.477 166.846 247.848 159.474 247.848 150.381C247.848 141.289 240.477 133.917 231.384 133.917C222.291 133.917 214.92 141.289 214.92 150.381C214.92 159.474 222.291 166.846 231.384 166.846Z" fill="white" stroke="black" stroke-width="5" stroke-miterlimit="10"/>
<path d="M231.384 158.138C235.667 158.138 239.14 154.665 239.14 150.382C239.14 146.098 235.667 142.625 231.384 142.625C227.1 142.625 223.628 146.098 223.628 150.382C223.628 154.665 227.1 158.138 231.384 158.138Z" fill="#020202"/>
<path d="M144.24 216C144.24 216 198.701 276.643 255.546 216C255.546 216 199.845 310.765 144.24 216Z" fill="#020202"/>
<path d="M184.944 118H154.121C151.845 118 150 119.845 150 122.121C150 124.398 151.845 126.243 154.121 126.243H184.944C187.22 126.243 189.065 124.398 189.065 122.121C189.065 119.845 187.22 118 184.944 118Z" fill="#020202"/>
<path d="M247.235 118H216.412C214.136 118 212.291 119.845 212.291 122.121C212.291 124.398 214.136 126.243 216.412 126.243H247.235C249.511 126.243 251.356 124.398 251.356 122.121C251.356 119.845 249.511 118 247.235 118Z" fill="#020202"/>
</g>
<defs>
<clipPath id="clip0_49_2239">
<rect width="403" height="323" fill="white"/>
</clipPath>
</defs>
</svg>
