<svg width="403" height="323" viewBox="0 0 403 323" fill="none" xmlns="http://www.w3.org/2000/svg">
<g clip-path="url(#clip0_51_1089)">
<g clip-path="url(#clip1_51_1089)">
<path d="M116.52 91.46C116.52 44.92 154.16 7.17001 200.67 7.00001C247.3 6.83001 285.45 45.49 285.45 92.12V267.2C285.45 274.9 279.21 281.15 271.5 281.15H130.6C122.91 281.15 116.67 274.92 116.65 267.23L116.51 91.48L116.52 91.46Z" fill="#754C24"/>
<path d="M283.68 125.72H273.97C273.64 125.72 273.31 125.74 272.99 125.77V103.68C272.99 63.98 240.51 31.07 200.81 31.21C161.22 31.35 129.17 63.49 129.17 103.12L129.23 120.21C129.19 120.59 129.17 120.97 129.17 121.36V125.77C128.85 125.73 128.52 125.72 128.19 125.72H118.48C107.91 125.72 99.3496 134.29 99.3496 144.85V148.42C99.3496 164.35 112.26 177.26 128.19 177.26C128.42 177.26 128.65 177.26 128.87 177.23C131.08 177.06 133.12 178.36 133.91 180.43C136.22 186.48 139.32 192.16 143.08 197.33V268.46H259.08V197.79C262.95 192.52 266.12 186.7 268.45 180.47C269.23 178.39 271.26 177.12 273.48 177.24C273.64 177.24 273.8 177.25 273.97 177.25C281.93 177.25 289.14 174.02 294.36 168.8C299.58 163.58 302.81 156.37 302.81 148.41V144.84C302.81 134.28 294.25 125.71 283.68 125.71V125.72Z" fill="#ED83CA"/>
<path d="M167.06 149.41C179.984 149.41 190.46 138.933 190.46 126.01C190.46 113.087 179.984 102.61 167.06 102.61C154.137 102.61 143.66 113.087 143.66 126.01C143.66 138.933 154.137 149.41 167.06 149.41Z" fill="white" stroke="black" stroke-width="5" stroke-miterlimit="10"/>
<path d="M167.06 133.39C171.136 133.39 174.44 130.086 174.44 126.01C174.44 121.934 171.136 118.63 167.06 118.63C162.984 118.63 159.68 121.934 159.68 126.01C159.68 130.086 162.984 133.39 167.06 133.39Z" fill="#020202"/>
<path d="M234.9 149.41C247.823 149.41 258.3 138.933 258.3 126.01C258.3 113.087 247.823 102.61 234.9 102.61C221.977 102.61 211.5 113.087 211.5 126.01C211.5 138.933 221.977 149.41 234.9 149.41Z" fill="white" stroke="black" stroke-width="5" stroke-miterlimit="10"/>
<path d="M234.9 133.39C238.975 133.39 242.28 130.086 242.28 126.01C242.28 121.934 238.975 118.63 234.9 118.63C230.824 118.63 227.52 121.934 227.52 126.01C227.52 130.086 230.824 133.39 234.9 133.39Z" fill="#020202"/>
<path d="M217.64 144.81C215.22 140.96 213.04 140.43 211.09 140.62L208.61 129.74C207.81 126.24 204.7 123.76 201.11 123.76H200.55C196.96 123.76 193.85 126.25 193.06 129.75L190.61 140.59C190.54 140.59 190.47 140.58 190.4 140.58C186.7 140.58 183.7 143.61 183.75 147.32C183.8 151.03 186.98 153.99 190.63 153.86C191.17 153.84 211.04 153.86 211.72 153.86C215.43 153.86 218.44 150.81 218.37 147.08C218.35 146.27 218.06 145.48 217.63 144.79L217.64 144.81Z" fill="#ED83CA" stroke="black" stroke-width="5" stroke-miterlimit="10"/>
<path d="M126.2 138.16H121.34C116.06 138.16 111.78 142.44 111.78 147.72V149.51C111.78 157.47 118.24 163.93 126.2 163.93" fill="#ED83CA"/>
<path d="M126.2 138.16H121.34C116.06 138.16 111.78 142.44 111.78 147.72V149.51C111.78 157.47 118.24 163.93 126.2 163.93" stroke="black" stroke-width="5" stroke-miterlimit="10"/>
<path d="M126.2 149.83L112.71 142.45" stroke="black" stroke-width="5" stroke-miterlimit="10"/>
<path d="M275.92 138.16H280.78C286.06 138.16 290.34 142.44 290.34 147.72V149.51C290.34 157.47 283.88 163.93 275.92 163.93" fill="#ED83CA"/>
<path d="M275.92 138.16H280.78C286.06 138.16 290.34 142.44 290.34 147.72V149.51C290.34 157.47 283.88 163.93 275.92 163.93" stroke="black" stroke-width="5" stroke-miterlimit="10"/>
<path d="M275.92 149.83L289.41 142.45" stroke="black" stroke-width="5" stroke-miterlimit="10"/>
<path d="M190.46 117.25H213.2" stroke="black" stroke-width="5" stroke-miterlimit="10"/>
<path d="M354.16 323.37H48C55.85 307.79 69.75 295.73 86.89 290.38L123.2 279.02L124.53 278.6C128.75 277.28 131.62 273.37 131.62 268.95V257.57C131.62 251.81 136.29 247.14 142.04 247.14H260.11C265.87 247.14 270.54 251.81 270.54 257.57V268.95C270.54 273.37 273.41 277.28 277.63 278.6L278.92 279.01L315.27 290.38C332.4 295.73 346.31 307.79 354.16 323.37Z" fill="#9966CC"/>
<path d="M129.93 77.75C129.93 44.64 167.68 17.79 200.76 17.67C233.93 17.55 273.4 45.05 273.4 78.22L129.93 77.75Z" fill="#754C24"/>
<path d="M262.48 78.22H136.02C188.02 78.22 197.46 44.23 199.09 29.25C199.15 28.69 199.2 28.15 199.24 27.65C199.28 28.16 199.33 28.69 199.39 29.25C201.03 44.23 210.46 78.22 262.47 78.22H262.48Z" fill="#ED83CA"/>
<path d="M177.7 88.15H153.12C150.795 88.15 148.91 90.0349 148.91 92.36C148.91 94.6851 150.795 96.57 153.12 96.57H177.7C180.025 96.57 181.91 94.6851 181.91 92.36C181.91 90.0349 180.025 88.15 177.7 88.15Z" fill="#020202"/>
<path d="M249.04 88.15H224.46C222.135 88.15 220.25 90.0349 220.25 92.36C220.25 94.6851 222.135 96.57 224.46 96.57H249.04C251.365 96.57 253.25 94.6851 253.25 92.36C253.25 90.0349 251.365 88.15 249.04 88.15Z" fill="#020202"/>
<path d="M201.07 169.5C201.07 165.1 196.5 161.53 190.87 161.53C185.24 161.53 180.67 165.1 180.67 169.5C180.67 173.9 185.31 180.23 201.08 180.23C216.85 180.23 221.49 173.9 221.49 169.5C221.49 165.1 216.92 161.53 211.29 161.53C205.66 161.53 201.09 165.1 201.09 169.5" fill="#ED83CA"/>
<path d="M201.07 169.5C201.07 165.1 196.5 161.53 190.87 161.53C185.24 161.53 180.67 165.1 180.67 169.5C180.67 173.9 185.31 180.23 201.08 180.23C216.85 180.23 221.49 173.9 221.49 169.5C221.49 165.1 216.92 161.53 211.29 161.53C205.66 161.53 201.09 165.1 201.09 169.5" stroke="#020202" stroke-width="5" stroke-linecap="round" stroke-linejoin="round"/>
<path d="M181 170.88H221.43" stroke="#020202" stroke-width="5" stroke-linecap="round" stroke-linejoin="round"/>
<path d="M254.23 203.33C235.47 232.65 216.86 241.93 200.33 241.16C184.23 241.91 166.16 233.16 147.92 205.67V201.98C157.06 210.11 176.37 224.32 200.32 225.05C225.46 224.28 245.47 208.67 253.99 200.83L254.23 203.33Z" fill="#020202"/>
</g>
</g>
<defs>
<clipPath id="clip0_51_1089">
<rect width="403" height="323" fill="white"/>
</clipPath>
<clipPath id="clip1_51_1089">
<rect width="306.16" height="316.37" fill="white" transform="translate(48 7)"/>
</clipPath>
</defs>
</svg>
