<svg width="403" height="323" viewBox="0 0 403 323" fill="none" xmlns="http://www.w3.org/2000/svg">
<g clip-path="url(#clip0_46_2132)">
<path d="M411.637 395.611C397.718 347.49 358.752 312.112 311.7 302.356C301.584 297.789 290.593 294.896 279.103 293.988V278.905C279.103 267.907 270.185 258.993 259.183 258.993H127.847C116.845 258.993 107.927 267.907 107.927 278.905V295.673C100.075 297.275 92.5361 299.824 85.451 303.192C40.073 314.004 2.787 348.765 -10.7596 395.611L-79.6909 764.262C-83.1761 782.906 -68.8635 800.133 -49.8894 800.133H33.0535L57.2635 682.935H343.296L375.407 839L458.109 810.266C474.873 804.442 484.858 787.243 481.597 769.802L411.631 395.611H411.637Z" fill="#56F879" stroke="black" stroke-width="5" stroke-miterlimit="10"/>
<path d="M280.848 71.2022C280.834 63.3876 274.5 57.0632 266.686 57.0632C262.146 57.0632 258.462 53.3836 258.462 48.8392V44.2581C258.462 30.8595 247.602 20 234.204 20H156.6C143.201 20 132.342 30.8595 132.342 44.2581V48.8392C132.342 53.379 128.662 57.0632 124.118 57.0632H123.607C115.783 57.0632 109.445 63.406 109.445 71.2252V178.432L280.99 179.099L280.852 71.2068L280.848 71.2022Z" fill="#754C24"/>
<path d="M261 184H130V285H261V184Z" fill="#ED83CA"/>
<path d="M269.814 177.935C269.814 219.041 236.563 252.383 195.489 252.535C154.31 252.682 120.613 218.54 120.613 177.36V81.726C120.613 74.9233 126.128 69.4084 132.931 69.4084H257.372C264.165 69.4084 269.68 74.9095 269.689 81.7076L269.809 177.939L269.814 177.935Z" fill="#ED83CA"/>
<path d="M110.333 200.744H128.878V142.679H100.255C94.4185 142.684 89.6855 147.417 89.6855 153.254V180.101C89.6855 191.504 98.9307 200.749 110.333 200.749V200.744Z" fill="#ED83CA"/>
<path d="M280.098 200.744H261.553V142.679H290.171C296.008 142.679 300.741 147.412 300.741 153.249V180.097C300.741 191.499 291.496 200.744 280.094 200.744H280.098Z" fill="#ED83CA"/>
<path d="M112.857 153.037H107.352C101.358 153.037 96.5059 157.895 96.5059 163.883V165.907C96.5059 174.941 103.828 182.263 112.862 182.263" fill="#ED83CA"/>
<path d="M112.857 153.037H107.352C101.358 153.037 96.5059 157.895 96.5059 163.883V165.907C96.5059 174.941 103.828 182.263 112.862 182.263" stroke="black" stroke-width="5" stroke-miterlimit="10"/>
<path d="M112.857 166.28L97.5547 157.909" stroke="black" stroke-width="5" stroke-miterlimit="10"/>
<path d="M278.069 153.037H283.575C289.568 153.037 294.42 157.895 294.42 163.883V165.907C294.42 174.941 287.098 182.263 278.064 182.263" fill="#ED83CA"/>
<path d="M278.069 153.037H283.575C289.568 153.037 294.42 157.895 294.42 163.883V165.907C294.42 174.941 287.098 182.263 278.064 182.263" stroke="black" stroke-width="5" stroke-miterlimit="10"/>
<path d="M278.069 166.28L293.367 157.909" stroke="black" stroke-width="5" stroke-miterlimit="10"/>
<path d="M265.389 179.066C264.423 179.066 263.641 179.825 263.572 180.791C262.685 193.905 251.77 204.267 238.431 204.267C225.092 204.267 214.173 193.905 213.29 180.791C213.226 179.825 212.444 179.066 211.473 179.066H179.037C178.071 179.066 177.289 179.825 177.22 180.791C176.333 193.905 165.418 204.267 152.079 204.267C138.74 204.267 127.821 193.905 126.938 180.791C126.873 179.825 126.092 179.066 125.121 179.066H123.447C122.306 179.066 121.437 180.092 121.625 181.214C127.508 216.709 158.477 244.288 195.499 244.155C232.613 244.026 263.342 216.783 268.912 181.201C269.087 180.078 268.222 179.066 267.086 179.066H265.394H265.389ZM220.98 204.599C220.98 210.054 216.56 214.474 211.101 214.474H182.638C176.167 214.474 170.919 209.226 170.919 202.754C170.919 197.294 175.339 192.874 180.794 192.874H209.256C215.732 192.874 220.98 198.122 220.98 204.599Z" fill="#754C24"/>
<path d="M158.609 166.16C169.512 166.16 178.351 157.322 178.351 146.419C178.351 135.516 169.512 126.677 158.609 126.677C147.707 126.677 138.868 135.516 138.868 146.419C138.868 157.322 147.707 166.16 158.609 166.16Z" fill="white" stroke="black" stroke-width="5" stroke-miterlimit="10"/>
<path d="M158.61 154.785C163.23 154.785 166.976 151.039 166.976 146.419C166.976 141.798 163.23 138.052 158.61 138.052C153.989 138.052 150.243 141.798 150.243 146.419C150.243 151.039 153.989 154.785 158.61 154.785Z" fill="#29ABE2" stroke="black" stroke-width="5" stroke-miterlimit="10"/>
<path d="M233.283 166.16C244.186 166.16 253.025 157.322 253.025 146.419C253.025 135.516 244.186 126.677 233.283 126.677C222.38 126.677 213.542 135.516 213.542 146.419C213.542 157.322 222.38 166.16 233.283 166.16Z" fill="white" stroke="black" stroke-width="5" stroke-miterlimit="10"/>
<path d="M233.284 154.785C237.904 154.785 241.65 151.039 241.65 146.419C241.65 141.798 237.904 138.052 233.284 138.052C228.663 138.052 224.917 141.798 224.917 146.419C224.917 151.039 228.663 154.785 233.284 154.785Z" fill="#29ABE2" stroke="black" stroke-width="5" stroke-miterlimit="10"/>
<path d="M211.095 192.336H180.793C175.336 192.336 170.913 196.759 170.913 202.216V204.06C170.913 209.517 175.336 213.94 180.793 213.94H211.095C216.551 213.94 220.975 209.517 220.975 204.06V202.216C220.975 196.759 216.551 192.336 211.095 192.336Z" stroke="black" stroke-width="5" stroke-miterlimit="10"/>
<path d="M170.913 203.136H220.979" stroke="#020202" stroke-width="5" stroke-linecap="round" stroke-linejoin="round"/>
<path d="M245.473 107.994H218.359C214.929 107.994 212.149 110.773 212.149 114.201C212.149 117.629 214.929 120.408 218.359 120.408H245.473C248.903 120.408 251.683 117.629 251.683 114.201C251.683 110.773 248.903 107.994 245.473 107.994Z" fill="#754C24"/>
<path d="M170.085 107.994H142.971C139.542 107.994 136.762 110.773 136.762 114.201C136.762 117.629 139.542 120.408 142.971 120.408H170.085C173.515 120.408 176.295 117.629 176.295 114.201C176.295 110.773 173.515 107.994 170.085 107.994Z" fill="#754C24"/>
<path d="M195.213 185.814C198.432 185.814 201.041 183.205 201.041 179.986C201.041 176.768 198.432 174.159 195.213 174.159C191.995 174.159 189.386 176.768 189.386 179.986C189.386 183.205 191.995 185.814 195.213 185.814Z" fill="white" stroke="black" stroke-width="5" stroke-linecap="round" stroke-linejoin="round"/>
<path d="M201.321 131.801C200.737 129.419 198.603 127.74 196.151 127.74H194.279C191.827 127.74 189.693 129.414 189.109 131.801L181.179 164.279C179.56 170.911 184.583 177.309 191.409 177.309H199.026C205.851 177.309 210.874 170.911 209.255 164.279L201.325 131.801H201.321Z" fill="#ED83CA" stroke="black" stroke-width="5" stroke-miterlimit="10"/>
<path d="M137.531 214.312C137.531 214.312 194.863 278.985 254.704 214.312C254.704 214.312 196.067 315.374 137.531 214.312Z" fill="#020202"/>
</g>
<defs>
<clipPath id="clip0_46_2132">
<rect width="403" height="323" fill="white"/>
</clipPath>
</defs>
</svg>
