<svg width="403" height="323" viewBox="0 0 403 323" fill="none" xmlns="http://www.w3.org/2000/svg">
<g clip-path="url(#clip0_49_2311)">
<path d="M419.853 395.611C405.934 347.49 366.968 312.112 319.916 302.356C309.8 297.789 298.808 294.896 287.319 293.988V278.905C287.319 267.907 278.401 258.993 267.398 258.993H136.063C125.06 258.993 116.142 267.907 116.142 278.905V295.673C108.291 297.275 100.752 299.824 93.6668 303.192C48.2889 314.004 11.0028 348.765 -2.5438 395.611L-71.4751 764.262C-74.9602 782.906 -60.6477 800.133 -41.6736 800.133H41.2694L65.4793 682.935H351.512L383.623 839L466.325 810.266C483.088 804.442 493.073 787.243 489.813 769.802L419.847 395.611H419.853Z" fill="#1E1E1E" stroke="black" stroke-width="5" stroke-miterlimit="10"/>
<path d="M122.59 173.416H134.696V131.213H113.399C108.076 131.209 103.76 135.526 103.76 140.853V154.591C103.76 164.989 112.191 173.421 122.59 173.421V173.416Z" fill="#ED83CA"/>
<path d="M279.411 173.416H267.305V131.213H288.601C293.924 131.213 298.241 135.53 298.241 140.853V154.591C298.241 164.989 289.809 173.421 279.411 173.421V173.416Z" fill="#ED83CA"/>
<path d="M114.676 95.2397C114.676 47.7178 153.112 9.17254 200.596 9.00056C248.202 8.82858 287.154 48.3008 287.154 95.9108V222.73C287.154 230.595 280.778 236.971 272.913 236.971H129.055C121.199 236.971 114.827 230.607 114.814 222.755L114.676 95.2439V95.2397Z" fill="#754C24"/>
<path fill-rule="evenodd" clip-rule="evenodd" d="M198.998 36.7703C198.998 36.7703 198.936 37.8087 198.996 39.6054L198.998 36.7703ZM199.151 42.2578C199.069 41.2531 199.022 40.362 198.996 39.6054L198.994 43.8948C197.316 59.2036 187.656 93.8603 134.593 93.8603H140.591C135.148 94.6397 130.964 99.3212 130.964 104.98V158.639C130.964 170.197 133.875 181.148 139 190.766V281H259V191.258C264.125 181.697 267.032 170.77 267.032 159.163L267.028 159.167L266.919 104.963C266.911 99.3089 262.727 94.6387 257.292 93.8603H263.71C210.646 93.8603 200.987 59.2036 199.308 43.8948L199.306 39.6054C199.366 37.8087 199.304 36.7703 199.304 36.7703L199.306 39.6054C199.281 40.362 199.234 41.2531 199.151 42.2578Z" fill="#ED83CA"/>
<path d="M198.993 185.468C198.993 179.872 194.455 175.333 188.859 175.333C183.263 175.333 178.725 179.872 178.725 185.468C178.725 191.064 183.33 199.113 198.998 199.113C214.665 199.113 219.271 191.064 219.271 185.468C219.271 179.872 214.732 175.333 209.136 175.333C203.541 175.333 199.002 179.872 199.002 185.468" stroke="#020202" stroke-width="5" stroke-linecap="round" stroke-linejoin="round"/>
<path d="M179.057 187.225H219.221" stroke="#020202" stroke-width="5" stroke-linecap="round" stroke-linejoin="round"/>
<path d="M204.569 123.248C204.036 121.075 202.09 119.544 199.854 119.544H198.147C195.911 119.544 193.965 121.071 193.432 123.248L186.2 152.867C184.724 158.915 189.304 164.75 195.529 164.75H202.476C208.701 164.75 213.281 158.915 211.805 152.867L204.573 123.248H204.569Z" fill="#ED83CA" stroke="black" stroke-width="5" stroke-miterlimit="10"/>
<path d="M167.857 149.846C176.95 149.846 184.321 142.475 184.321 133.382C184.321 124.289 176.95 116.918 167.857 116.918C158.764 116.918 151.393 124.289 151.393 133.382C151.393 142.475 158.764 149.846 167.857 149.846Z" fill="white" stroke="black" stroke-width="5" stroke-miterlimit="10"/>
<path d="M167.857 141.138C172.14 141.138 175.613 137.666 175.613 133.382C175.613 129.098 172.14 125.626 167.857 125.626C163.573 125.626 160.101 129.098 160.101 133.382C160.101 137.666 163.573 141.138 167.857 141.138Z" fill="#020202"/>
<path d="M230.144 149.846C239.237 149.846 246.608 142.475 246.608 133.382C246.608 124.289 239.237 116.918 230.144 116.918C221.051 116.918 213.68 124.289 213.68 133.382C213.68 142.475 221.051 149.846 230.144 149.846Z" fill="white" stroke="black" stroke-width="5" stroke-miterlimit="10"/>
<path d="M230.144 141.138C234.427 141.138 237.9 137.666 237.9 133.382C237.9 129.098 234.427 125.626 230.144 125.626C225.86 125.626 222.388 129.098 222.388 133.382C222.388 137.666 225.86 141.138 230.144 141.138Z" fill="#020202"/>
<path d="M183.876 128.399H214.787" stroke="black" stroke-width="5" stroke-miterlimit="10"/>
<path d="M215.681 108.549C215.681 108.549 220.769 104.417 231.205 104.417C241.642 104.417 246.998 108.549 246.998 108.549" stroke="#020202" stroke-width="11.7452" stroke-linecap="round" stroke-linejoin="round"/>
<path d="M152.197 108.549C152.197 108.549 157.285 104.417 167.722 104.417C178.158 104.417 183.515 108.549 183.515 108.549" stroke="#020202" stroke-width="11.7452" stroke-linecap="round" stroke-linejoin="round"/>
<path d="M143 199C143 199 197.461 259.644 254.306 199C254.306 199 198.605 293.766 143 199Z" fill="#020202"/>
</g>
<defs>
<clipPath id="clip0_49_2311">
<rect width="403" height="323" fill="white"/>
</clipPath>
</defs>
</svg>
